<svg width="144" height="56" viewBox="0 0 144 56" fill="none" xmlns="http://www.w3.org/2000/svg">
<rect width="56" height="56" rx="28" fill="#121212"/>
<path d="M37.568 19.152V36H33.464V25.896L29.696 36H26.384L22.592 25.872V36H18.488V19.152H23.336L28.064 30.816L32.744 19.152H37.568Z" fill="white"/>
<path d="M70.44 34V19.1H73.04L78.62 26.68H77.38L82.84 19.1H85.44V34H82.7V22.2L83.76 22.46L78.1 30H77.78L72.26 22.46L73.16 22.2V34H70.44ZM89.0716 34V23.12H91.6916V34H89.0716ZM89.0716 21.9V19.1H91.6916V21.9H89.0716ZM95.1106 34V23.12H97.5706V25.26L97.3706 24.88C97.624 24.2267 98.0373 23.7333 98.6106 23.4C99.1973 23.0533 99.8773 22.88 100.651 22.88C101.451 22.88 102.157 23.0533 102.771 23.4C103.397 23.7467 103.884 24.2333 104.231 24.86C104.577 25.4733 104.751 26.1867 104.751 27V34H102.131V27.62C102.131 27.14 102.037 26.7267 101.851 26.38C101.664 26.0333 101.404 25.7667 101.071 25.58C100.751 25.38 100.371 25.28 99.9306 25.28C99.504 25.28 99.124 25.38 98.7906 25.58C98.4573 25.7667 98.1973 26.0333 98.0106 26.38C97.824 26.7267 97.7306 27.14 97.7306 27.62V34H95.1106ZM107.966 34V23.12H110.586V34H107.966ZM107.966 21.9V19.1H110.586V21.9H107.966ZM114.005 34V23.12H116.465V25.64L116.185 25.22C116.385 24.4333 116.785 23.8467 117.385 23.46C117.985 23.0733 118.692 22.88 119.505 22.88C120.398 22.88 121.185 23.1133 121.865 23.58C122.545 24.0467 122.985 24.66 123.185 25.42L122.445 25.48C122.778 24.6133 123.278 23.9667 123.945 23.54C124.612 23.1 125.378 22.88 126.245 22.88C127.018 22.88 127.705 23.0533 128.305 23.4C128.918 23.7467 129.398 24.2333 129.745 24.86C130.092 25.4733 130.265 26.1867 130.265 27V34H127.645V27.62C127.645 27.14 127.558 26.7267 127.385 26.38C127.212 26.0333 126.972 25.7667 126.665 25.58C126.358 25.38 125.985 25.28 125.545 25.28C125.132 25.28 124.765 25.38 124.445 25.58C124.125 25.7667 123.878 26.0333 123.705 26.38C123.532 26.7267 123.445 27.14 123.445 27.62V34H120.825V27.62C120.825 27.14 120.738 26.7267 120.565 26.38C120.392 26.0333 120.145 25.7667 119.825 25.58C119.518 25.38 119.152 25.28 118.725 25.28C118.312 25.28 117.945 25.38 117.625 25.58C117.305 25.7667 117.058 26.0333 116.885 26.38C116.712 26.7267 116.625 27.14 116.625 27.62V34H114.005ZM136.782 34.24C136.022 34.24 135.362 34.1133 134.802 33.86C134.242 33.6067 133.808 33.2467 133.502 32.78C133.195 32.3 133.042 31.7467 133.042 31.12C133.042 30.52 133.175 29.9867 133.442 29.52C133.708 29.04 134.122 28.64 134.682 28.32C135.242 28 135.948 27.7733 136.802 27.64L140.362 27.06V29.06L137.302 29.58C136.782 29.6733 136.395 29.84 136.142 30.08C135.888 30.32 135.762 30.6333 135.762 31.02C135.762 31.3933 135.902 31.6933 136.182 31.92C136.475 32.1333 136.835 32.24 137.262 32.24C137.808 32.24 138.288 32.1267 138.702 31.9C139.128 31.66 139.455 31.3333 139.682 30.92C139.922 30.5067 140.042 30.0533 140.042 29.56V26.76C140.042 26.2933 139.855 25.9067 139.482 25.6C139.122 25.28 138.642 25.12 138.042 25.12C137.482 25.12 136.982 25.2733 136.542 25.58C136.115 25.8733 135.802 26.2667 135.602 26.76L133.462 25.72C133.675 25.1467 134.008 24.6533 134.462 24.24C134.928 23.8133 135.475 23.48 136.102 23.24C136.728 23 137.408 22.88 138.142 22.88C139.035 22.88 139.822 23.0467 140.502 23.38C141.182 23.7 141.708 24.1533 142.082 24.74C142.468 25.3133 142.662 25.9867 142.662 26.76V34H140.182V32.14L140.742 32.1C140.462 32.5667 140.128 32.96 139.742 33.28C139.355 33.5867 138.915 33.8267 138.422 34C137.928 34.16 137.382 34.24 136.782 34.24Z" fill="black"/>
</svg>
