<svg width="65" height="23" viewBox="0 0 65 23" fill="none" xmlns="http://www.w3.org/2000/svg">
<path d="M53.0367 22.5328C59.0909 22.5328 64.017 17.527 64.017 11.375C64.017 5.21945 59.0909 0.217285 53.0367 0.217285C46.9813 0.217285 42.0564 5.21945 42.0564 11.375C42.0564 17.527 46.9813 22.5328 53.0367 22.5328ZM53.0367 7.39636C55.1943 7.39636 56.9514 9.18112 56.9514 11.3738C56.9514 13.5665 55.1931 15.3488 53.0355 15.3488C50.8767 15.3488 49.122 13.5665 49.122 11.3726C49.122 9.17747 50.8779 7.39393 53.0355 7.39393L53.0367 7.39636ZM11.6097 22.5328C17.6639 22.5328 22.59 17.527 22.59 11.375C22.59 5.21945 17.6639 0.217285 11.6097 0.217285C5.55672 0.217285 0.62941 5.21945 0.62941 11.375C0.62941 17.527 5.55672 22.5328 11.6097 22.5328ZM11.6097 7.39636C13.7685 7.39636 15.5244 9.18112 15.5244 11.3738C15.5244 13.5665 13.7685 15.3488 11.6097 15.3488C9.45215 15.3488 7.69747 13.5665 7.69747 11.3726C7.69747 9.17747 9.45335 7.39393 11.6097 7.39393V7.39636ZM32.3172 7.14504L28.9461 0.362979H21.053L28.4254 15.1995V22.1843H36.2102V15.1995L43.5825 0.362979H35.6859L32.3184 7.14504H32.3172Z" fill="#EE2E24"/>
</svg>
