<svg width="30" height="22" viewBox="0 0 30 22" fill="none" xmlns="http://www.w3.org/2000/svg">
<path fill-rule="evenodd" clip-rule="evenodd" d="M4.19998 0.199951C3.2452 0.199951 2.32952 0.579236 1.65439 1.25437C0.97926 1.9295 0.599976 2.84517 0.599976 3.79995V11C0.599976 11.9547 0.97926 12.8704 1.65439 13.5455C2.32952 14.2207 3.2452 14.6 4.19998 14.6V3.79995H22.2C22.2 2.84517 21.8207 1.9295 21.1456 1.25437C20.4704 0.579236 19.5548 0.199951 18.6 0.199951H4.19998ZM7.79998 11C7.79998 10.0452 8.17926 9.1295 8.85439 8.45437C9.52952 7.77924 10.4452 7.39995 11.4 7.39995H25.8C26.7548 7.39995 27.6704 7.77924 28.3456 8.45437C29.0207 9.1295 29.4 10.0452 29.4 11V18.2C29.4 19.1547 29.0207 20.0704 28.3456 20.7455C27.6704 21.4207 26.7548 21.8 25.8 21.8H11.4C10.4452 21.8 9.52952 21.4207 8.85439 20.7455C8.17926 20.0704 7.79998 19.1547 7.79998 18.2V11ZM18.6 18.2C19.5548 18.2 20.4704 17.8207 21.1456 17.1455C21.8207 16.4704 22.2 15.5547 22.2 14.6C22.2 13.6452 21.8207 12.7295 21.1456 12.0544C20.4704 11.3792 19.5548 11 18.6 11C17.6452 11 16.7295 11.3792 16.0544 12.0544C15.3793 12.7295 15 13.6452 15 14.6C15 15.5547 15.3793 16.4704 16.0544 17.1455C16.7295 17.8207 17.6452 18.2 18.6 18.2Z" fill="#1D1D1D"/>
</svg>
