<svg width="32" height="32" viewBox="0 0 32 32" fill="none" xmlns="http://www.w3.org/2000/svg">
<path d="M14.4 3.20001C13.9756 3.20001 13.5687 3.36858 13.2686 3.66864C12.9686 3.9687 12.8 4.37567 12.8 4.80001C12.8 5.22436 12.9686 5.63133 13.2686 5.93138C13.5687 6.23144 13.9756 6.40001 14.4 6.40001H17.6C18.0243 6.40001 18.4313 6.23144 18.7314 5.93138C19.0314 5.63133 19.2 5.22436 19.2 4.80001C19.2 4.37567 19.0314 3.9687 18.7314 3.66864C18.4313 3.36858 18.0243 3.20001 17.6 3.20001H14.4Z" fill="#121212"/>
<path fill-rule="evenodd" clip-rule="evenodd" d="M6.40002 7.99999C6.40002 7.15129 6.73717 6.33736 7.33728 5.73725C7.9374 5.13713 8.75133 4.79999 9.60002 4.79999C9.60002 6.07303 10.1057 7.29393 11.0059 8.1941C11.9061 9.09427 13.127 9.59999 14.4 9.59999H17.6C18.8731 9.59999 20.094 9.09427 20.9941 8.1941C21.8943 7.29393 22.4 6.07303 22.4 4.79999C23.2487 4.79999 24.0626 5.13713 24.6628 5.73725C25.2629 6.33736 25.6 7.15129 25.6 7.99999V25.6C25.6 26.4487 25.2629 27.2626 24.6628 27.8627C24.0626 28.4628 23.2487 28.8 22.4 28.8H9.60002C8.75133 28.8 7.9374 28.4628 7.33728 27.8627C6.73717 27.2626 6.40002 26.4487 6.40002 25.6V7.99999ZM11.2 14.4C10.7757 14.4 10.3687 14.5686 10.0687 14.8686C9.7686 15.1687 9.60002 15.5756 9.60002 16C9.60002 16.4243 9.7686 16.8313 10.0687 17.1314C10.3687 17.4314 10.7757 17.6 11.2 17.6H11.216C11.6404 17.6 12.0473 17.4314 12.3474 17.1314C12.6475 16.8313 12.816 16.4243 12.816 16C12.816 15.5756 12.6475 15.1687 12.3474 14.8686C12.0473 14.5686 11.6404 14.4 11.216 14.4H11.2ZM16 14.4C15.5757 14.4 15.1687 14.5686 14.8687 14.8686C14.5686 15.1687 14.4 15.5756 14.4 16C14.4 16.4243 14.5686 16.8313 14.8687 17.1314C15.1687 17.4314 15.5757 17.6 16 17.6H20.8C21.2244 17.6 21.6313 17.4314 21.9314 17.1314C22.2315 16.8313 22.4 16.4243 22.4 16C22.4 15.5756 22.2315 15.1687 21.9314 14.8686C21.6313 14.5686 21.2244 14.4 20.8 14.4H16ZM11.2 20.8C10.7757 20.8 10.3687 20.9686 10.0687 21.2686C9.7686 21.5687 9.60002 21.9756 9.60002 22.4C9.60002 22.8243 9.7686 23.2313 10.0687 23.5314C10.3687 23.8314 10.7757 24 11.2 24H11.216C11.6404 24 12.0473 23.8314 12.3474 23.5314C12.6475 23.2313 12.816 22.8243 12.816 22.4C12.816 21.9756 12.6475 21.5687 12.3474 21.2686C12.0473 20.9686 11.6404 20.8 11.216 20.8H11.2ZM16 20.8C15.5757 20.8 15.1687 20.9686 14.8687 21.2686C14.5686 21.5687 14.4 21.9756 14.4 22.4C14.4 22.8243 14.5686 23.2313 14.8687 23.5314C15.1687 23.8314 15.5757 24 16 24H20.8C21.2244 24 21.6313 23.8314 21.9314 23.5314C22.2315 23.2313 22.4 22.8243 22.4 22.4C22.4 21.9756 22.2315 21.5687 21.9314 21.2686C21.6313 20.9686 21.2244 20.8 20.8 20.8H16Z" fill="#1D1D1D"/>
</svg>
